ISO-10303-21;
HEADER;
/* Generated by software containing ST-Developer
 * from STEP Tools, Inc. (www.steptools.com) 
 */

FILE_DESCRIPTION(
/* description */ (''),
/* implementation_level */ '2;1');

FILE_NAME(
/* name */ 'knob.step',
/* time_stamp */ '2026-06-20T13:43:13-07:00',
/* author */ (''),
/* organization */ (''),
/* preprocessor_version */ 'ST-DEVELOPER v20.1',
/* originating_system */ 'Autodesk Translation Framework v15.8.0.0',
/* authorisation */ '');

FILE_SCHEMA (('AUTOMOTIVE_DESIGN { 1 0 10303 214 3 1 1 }'));
ENDSEC;

DATA;
#10=MECHANICAL_DESIGN_GEOMETRIC_PRESENTATION_REPRESENTATION('',(#13),#666);
#11=SHAPE_REPRESENTATION_RELATIONSHIP('SRR','None',#673,#12);
#12=ADVANCED_BREP_SHAPE_REPRESENTATION('',(#14),#665);
#13=STYLED_ITEM('',(#682),#14);
#14=MANIFOLD_SOLID_BREP('Body1',#358);
#15=LINE('',#602,#32);
#16=LINE('',#603,#33);
#17=LINE('',#605,#34);
#18=LINE('',#607,#35);
#19=LINE('',#609,#36);
#20=LINE('',#611,#37);
#21=LINE('',#635,#38);
#22=LINE('',#638,#39);
#23=LINE('',#640,#40);
#24=LINE('',#641,#41);
#25=LINE('',#643,#42);
#26=LINE('',#645,#43);
#27=LINE('',#647,#44);
#28=LINE('',#649,#45);
#29=LINE('',#651,#46);
#30=LINE('',#655,#47);
#31=LINE('',#661,#48);
#32=VECTOR('',#477,10.);
#33=VECTOR('',#478,10.);
#34=VECTOR('',#481,10.);
#35=VECTOR('',#484,10.);
#36=VECTOR('',#487,10.);
#37=VECTOR('',#490,10.);
#38=VECTOR('',#515,10.);
#39=VECTOR('',#518,10.);
#40=VECTOR('',#521,10.);
#41=VECTOR('',#522,10.);
#42=VECTOR('',#525,10.);
#43=VECTOR('',#528,10.);
#44=VECTOR('',#531,10.);
#45=VECTOR('',#534,10.);
#46=VECTOR('',#537,10.);
#47=VECTOR('',#542,3.05);
#48=VECTOR('',#553,10.);
#49=CYLINDRICAL_SURFACE('',#395,3.5);
#50=CYLINDRICAL_SURFACE('',#396,3.5);
#51=CYLINDRICAL_SURFACE('',#397,3.5);
#52=CYLINDRICAL_SURFACE('',#398,3.5);
#53=CYLINDRICAL_SURFACE('',#399,3.5);
#54=CYLINDRICAL_SURFACE('',#411,3.);
#55=CYLINDRICAL_SURFACE('',#413,2.5);
#56=CYLINDRICAL_SURFACE('',#414,2.5);
#57=CYLINDRICAL_SURFACE('',#415,2.5);
#58=CYLINDRICAL_SURFACE('',#416,2.5);
#59=CYLINDRICAL_SURFACE('',#417,2.5);
#60=CYLINDRICAL_SURFACE('',#418,2.5);
#61=CYLINDRICAL_SURFACE('',#419,2.5);
#62=CYLINDRICAL_SURFACE('',#420,3.05);
#63=CYLINDRICAL_SURFACE('',#425,3.5);
#64=CYLINDRICAL_SURFACE('',#426,3.5);
#65=FACE_BOUND('',#89,.T.);
#66=FACE_BOUND('',#97,.T.);
#67=FACE_OUTER_BOUND('',#88,.T.);
#68=FACE_OUTER_BOUND('',#90,.T.);
#69=FACE_OUTER_BOUND('',#91,.T.);
#70=FACE_OUTER_BOUND('',#92,.T.);
#71=FACE_OUTER_BOUND('',#93,.T.);
#72=FACE_OUTER_BOUND('',#94,.T.);
#73=FACE_OUTER_BOUND('',#95,.T.);
#74=FACE_OUTER_BOUND('',#96,.T.);
#75=FACE_OUTER_BOUND('',#98,.T.);
#76=FACE_OUTER_BOUND('',#99,.T.);
#77=FACE_OUTER_BOUND('',#100,.T.);
#78=FACE_OUTER_BOUND('',#101,.T.);
#79=FACE_OUTER_BOUND('',#102,.T.);
#80=FACE_OUTER_BOUND('',#103,.T.);
#81=FACE_OUTER_BOUND('',#104,.T.);
#82=FACE_OUTER_BOUND('',#105,.T.);
#83=FACE_OUTER_BOUND('',#106,.T.);
#84=FACE_OUTER_BOUND('',#107,.T.);
#85=FACE_OUTER_BOUND('',#108,.T.);
#86=FACE_OUTER_BOUND('',#109,.T.);
#87=FACE_OUTER_BOUND('',#110,.T.);
#88=EDGE_LOOP('',(#230,#231,#232,#233,#234,#235,#236));
#89=EDGE_LOOP('',(#237,#238,#239,#240,#241,#242,#243));
#90=EDGE_LOOP('',(#244,#245,#246,#247,#248,#249,#250));
#91=EDGE_LOOP('',(#251,#252,#253,#254));
#92=EDGE_LOOP('',(#255,#256,#257,#258));
#93=EDGE_LOOP('',(#259,#260,#261,#262));
#94=EDGE_LOOP('',(#263,#264,#265,#266));
#95=EDGE_LOOP('',(#267,#268,#269,#270));
#96=EDGE_LOOP('',(#271,#272,#273,#274,#275,#276,#277));
#97=EDGE_LOOP('',(#278,#279,#280));
#98=EDGE_LOOP('',(#281,#282,#283,#284));
#99=EDGE_LOOP('',(#285,#286,#287,#288));
#100=EDGE_LOOP('',(#289,#290,#291,#292));
#101=EDGE_LOOP('',(#293,#294,#295,#296));
#102=EDGE_LOOP('',(#297,#298,#299,#300));
#103=EDGE_LOOP('',(#301,#302,#303,#304));
#104=EDGE_LOOP('',(#305,#306,#307,#308));
#105=EDGE_LOOP('',(#309,#310,#311,#312));
#106=EDGE_LOOP('',(#313,#314,#315,#316,#317,#318,#319,#320));
#107=EDGE_LOOP('',(#321));
#108=EDGE_LOOP('',(#322,#323));
#109=EDGE_LOOP('',(#324,#325,#326,#327));
#110=EDGE_LOOP('',(#328,#329,#330,#331));
#111=CIRCLE('',#373,3.5);
#112=CIRCLE('',#374,3.5);
#113=CIRCLE('',#375,3.5);
#114=CIRCLE('',#376,3.5);
#115=CIRCLE('',#377,3.5);
#116=CIRCLE('',#378,3.5);
#117=CIRCLE('',#379,3.5);
#118=CIRCLE('',#380,2.5);
#119=CIRCLE('',#381,2.5);
#120=CIRCLE('',#382,2.5);
#121=CIRCLE('',#383,2.5);
#122=CIRCLE('',#384,2.5);
#123=CIRCLE('',#385,2.5);
#124=CIRCLE('',#386,2.5);
#125=CIRCLE('',#388,3.5);
#126=CIRCLE('',#389,3.5);
#127=CIRCLE('',#390,3.5);
#128=CIRCLE('',#391,3.5);
#129=CIRCLE('',#392,3.5);
#130=CIRCLE('',#393,3.5);
#131=CIRCLE('',#394,3.5);
#132=CIRCLE('',#401,2.5);
#133=CIRCLE('',#402,2.5);
#134=CIRCLE('',#403,2.5);
#135=CIRCLE('',#404,2.5);
#136=CIRCLE('',#405,2.5);
#137=CIRCLE('',#406,2.5);
#138=CIRCLE('',#407,2.5);
#139=CIRCLE('',#408,3.05);
#140=CIRCLE('',#409,3.);
#141=CIRCLE('',#410,3.05);
#142=CIRCLE('',#412,3.);
#143=CIRCLE('',#421,3.05);
#144=CIRCLE('',#422,3.05);
#145=VERTEX_POINT('',#558);
#146=VERTEX_POINT('',#559);
#147=VERTEX_POINT('',#561);
#148=VERTEX_POINT('',#563);
#149=VERTEX_POINT('',#565);
#150=VERTEX_POINT('',#567);
#151=VERTEX_POINT('',#569);
#152=VERTEX_POINT('',#572);
#153=VERTEX_POINT('',#573);
#154=VERTEX_POINT('',#575);
#155=VERTEX_POINT('',#577);
#156=VERTEX_POINT('',#579);
#157=VERTEX_POINT('',#581);
#158=VERTEX_POINT('',#583);
#159=VERTEX_POINT('',#587);
#160=VERTEX_POINT('',#588);
#161=VERTEX_POINT('',#590);
#162=VERTEX_POINT('',#592);
#163=VERTEX_POINT('',#594);
#164=VERTEX_POINT('',#596);
#165=VERTEX_POINT('',#598);
#166=VERTEX_POINT('',#613);
#167=VERTEX_POINT('',#614);
#168=VERTEX_POINT('',#616);
#169=VERTEX_POINT('',#618);
#170=VERTEX_POINT('',#620);
#171=VERTEX_POINT('',#622);
#172=VERTEX_POINT('',#624);
#173=VERTEX_POINT('',#627);
#174=VERTEX_POINT('',#628);
#175=VERTEX_POINT('',#630);
#176=VERTEX_POINT('',#634);
#177=VERTEX_POINT('',#636);
#178=VERTEX_POINT('',#654);
#179=EDGE_CURVE('',#145,#146,#111,.T.);
#180=EDGE_CURVE('',#146,#147,#112,.T.);
#181=EDGE_CURVE('',#147,#148,#113,.T.);
#182=EDGE_CURVE('',#148,#149,#114,.T.);
#183=EDGE_CURVE('',#149,#150,#115,.T.);
#184=EDGE_CURVE('',#150,#151,#116,.T.);
#185=EDGE_CURVE('',#151,#145,#117,.T.);
#186=EDGE_CURVE('',#152,#153,#118,.T.);
#187=EDGE_CURVE('',#153,#154,#119,.T.);
#188=EDGE_CURVE('',#154,#155,#120,.T.);
#189=EDGE_CURVE('',#155,#156,#121,.T.);
#190=EDGE_CURVE('',#156,#157,#122,.T.);
#191=EDGE_CURVE('',#157,#158,#123,.T.);
#192=EDGE_CURVE('',#158,#152,#124,.T.);
#193=EDGE_CURVE('',#159,#160,#125,.T.);
#194=EDGE_CURVE('',#161,#159,#126,.T.);
#195=EDGE_CURVE('',#162,#161,#127,.T.);
#196=EDGE_CURVE('',#163,#162,#128,.T.);
#197=EDGE_CURVE('',#164,#163,#129,.T.);
#198=EDGE_CURVE('',#165,#164,#130,.T.);
#199=EDGE_CURVE('',#160,#165,#131,.T.);
#200=EDGE_CURVE('',#163,#149,#15,.T.);
#201=EDGE_CURVE('',#164,#148,#16,.T.);
#202=EDGE_CURVE('',#162,#150,#17,.T.);
#203=EDGE_CURVE('',#161,#151,#18,.T.);
#204=EDGE_CURVE('',#159,#145,#19,.T.);
#205=EDGE_CURVE('',#160,#146,#20,.T.);
#206=EDGE_CURVE('',#166,#167,#132,.T.);
#207=EDGE_CURVE('',#168,#166,#133,.T.);
#208=EDGE_CURVE('',#169,#168,#134,.T.);
#209=EDGE_CURVE('',#170,#169,#135,.T.);
#210=EDGE_CURVE('',#171,#170,#136,.T.);
#211=EDGE_CURVE('',#172,#171,#137,.T.);
#212=EDGE_CURVE('',#167,#172,#138,.T.);
#213=EDGE_CURVE('',#173,#174,#139,.T.);
#214=EDGE_CURVE('',#175,#173,#140,.T.);
#215=EDGE_CURVE('',#174,#175,#141,.T.);
#216=EDGE_CURVE('',#176,#173,#21,.T.);
#217=EDGE_CURVE('',#177,#176,#142,.T.);
#218=EDGE_CURVE('',#175,#177,#22,.T.);
#219=EDGE_CURVE('',#152,#168,#23,.T.);
#220=EDGE_CURVE('',#166,#153,#24,.T.);
#221=EDGE_CURVE('',#158,#169,#25,.T.);
#222=EDGE_CURVE('',#157,#170,#26,.T.);
#223=EDGE_CURVE('',#156,#171,#27,.T.);
#224=EDGE_CURVE('',#155,#172,#28,.T.);
#225=EDGE_CURVE('',#154,#167,#29,.T.);
#226=EDGE_CURVE('',#174,#178,#30,.T.);
#227=EDGE_CURVE('',#178,#178,#143,.T.);
#228=EDGE_CURVE('',#176,#177,#144,.T.);
#229=EDGE_CURVE('',#165,#147,#31,.T.);
#230=ORIENTED_EDGE('',*,*,#179,.T.);
#231=ORIENTED_EDGE('',*,*,#180,.T.);
#232=ORIENTED_EDGE('',*,*,#181,.T.);
#233=ORIENTED_EDGE('',*,*,#182,.T.);
#234=ORIENTED_EDGE('',*,*,#183,.T.);
#235=ORIENTED_EDGE('',*,*,#184,.T.);
#236=ORIENTED_EDGE('',*,*,#185,.T.);
#237=ORIENTED_EDGE('',*,*,#186,.T.);
#238=ORIENTED_EDGE('',*,*,#187,.T.);
#239=ORIENTED_EDGE('',*,*,#188,.T.);
#240=ORIENTED_EDGE('',*,*,#189,.T.);
#241=ORIENTED_EDGE('',*,*,#190,.T.);
#242=ORIENTED_EDGE('',*,*,#191,.T.);
#243=ORIENTED_EDGE('',*,*,#192,.T.);
#244=ORIENTED_EDGE('',*,*,#193,.F.);
#245=ORIENTED_EDGE('',*,*,#194,.F.);
#246=ORIENTED_EDGE('',*,*,#195,.F.);
#247=ORIENTED_EDGE('',*,*,#196,.F.);
#248=ORIENTED_EDGE('',*,*,#197,.F.);
#249=ORIENTED_EDGE('',*,*,#198,.F.);
#250=ORIENTED_EDGE('',*,*,#199,.F.);
#251=ORIENTED_EDGE('',*,*,#197,.T.);
#252=ORIENTED_EDGE('',*,*,#200,.T.);
#253=ORIENTED_EDGE('',*,*,#182,.F.);
#254=ORIENTED_EDGE('',*,*,#201,.F.);
#255=ORIENTED_EDGE('',*,*,#196,.T.);
#256=ORIENTED_EDGE('',*,*,#202,.T.);
#257=ORIENTED_EDGE('',*,*,#183,.F.);
#258=ORIENTED_EDGE('',*,*,#200,.F.);
#259=ORIENTED_EDGE('',*,*,#195,.T.);
#260=ORIENTED_EDGE('',*,*,#203,.T.);
#261=ORIENTED_EDGE('',*,*,#184,.F.);
#262=ORIENTED_EDGE('',*,*,#202,.F.);
#263=ORIENTED_EDGE('',*,*,#194,.T.);
#264=ORIENTED_EDGE('',*,*,#204,.T.);
#265=ORIENTED_EDGE('',*,*,#185,.F.);
#266=ORIENTED_EDGE('',*,*,#203,.F.);
#267=ORIENTED_EDGE('',*,*,#193,.T.);
#268=ORIENTED_EDGE('',*,*,#205,.T.);
#269=ORIENTED_EDGE('',*,*,#179,.F.);
#270=ORIENTED_EDGE('',*,*,#204,.F.);
#271=ORIENTED_EDGE('',*,*,#206,.F.);
#272=ORIENTED_EDGE('',*,*,#207,.F.);
#273=ORIENTED_EDGE('',*,*,#208,.F.);
#274=ORIENTED_EDGE('',*,*,#209,.F.);
#275=ORIENTED_EDGE('',*,*,#210,.F.);
#276=ORIENTED_EDGE('',*,*,#211,.F.);
#277=ORIENTED_EDGE('',*,*,#212,.F.);
#278=ORIENTED_EDGE('',*,*,#213,.F.);
#279=ORIENTED_EDGE('',*,*,#214,.F.);
#280=ORIENTED_EDGE('',*,*,#215,.F.);
#281=ORIENTED_EDGE('',*,*,#216,.F.);
#282=ORIENTED_EDGE('',*,*,#217,.F.);
#283=ORIENTED_EDGE('',*,*,#218,.F.);
#284=ORIENTED_EDGE('',*,*,#214,.T.);
#285=ORIENTED_EDGE('',*,*,#219,.T.);
#286=ORIENTED_EDGE('',*,*,#207,.T.);
#287=ORIENTED_EDGE('',*,*,#220,.T.);
#288=ORIENTED_EDGE('',*,*,#186,.F.);
#289=ORIENTED_EDGE('',*,*,#221,.T.);
#290=ORIENTED_EDGE('',*,*,#208,.T.);
#291=ORIENTED_EDGE('',*,*,#219,.F.);
#292=ORIENTED_EDGE('',*,*,#192,.F.);
#293=ORIENTED_EDGE('',*,*,#222,.T.);
#294=ORIENTED_EDGE('',*,*,#209,.T.);
#295=ORIENTED_EDGE('',*,*,#221,.F.);
#296=ORIENTED_EDGE('',*,*,#191,.F.);
#297=ORIENTED_EDGE('',*,*,#223,.T.);
#298=ORIENTED_EDGE('',*,*,#210,.T.);
#299=ORIENTED_EDGE('',*,*,#222,.F.);
#300=ORIENTED_EDGE('',*,*,#190,.F.);
#301=ORIENTED_EDGE('',*,*,#224,.T.);
#302=ORIENTED_EDGE('',*,*,#211,.T.);
#303=ORIENTED_EDGE('',*,*,#223,.F.);
#304=ORIENTED_EDGE('',*,*,#189,.F.);
#305=ORIENTED_EDGE('',*,*,#225,.T.);
#306=ORIENTED_EDGE('',*,*,#212,.T.);
#307=ORIENTED_EDGE('',*,*,#224,.F.);
#308=ORIENTED_EDGE('',*,*,#188,.F.);
#309=ORIENTED_EDGE('',*,*,#220,.F.);
#310=ORIENTED_EDGE('',*,*,#206,.T.);
#311=ORIENTED_EDGE('',*,*,#225,.F.);
#312=ORIENTED_EDGE('',*,*,#187,.F.);
#313=ORIENTED_EDGE('',*,*,#216,.T.);
#314=ORIENTED_EDGE('',*,*,#213,.T.);
#315=ORIENTED_EDGE('',*,*,#226,.T.);
#316=ORIENTED_EDGE('',*,*,#227,.T.);
#317=ORIENTED_EDGE('',*,*,#226,.F.);
#318=ORIENTED_EDGE('',*,*,#215,.T.);
#319=ORIENTED_EDGE('',*,*,#218,.T.);
#320=ORIENTED_EDGE('',*,*,#228,.F.);
#321=ORIENTED_EDGE('',*,*,#227,.F.);
#322=ORIENTED_EDGE('',*,*,#217,.T.);
#323=ORIENTED_EDGE('',*,*,#228,.T.);
#324=ORIENTED_EDGE('',*,*,#198,.T.);
#325=ORIENTED_EDGE('',*,*,#201,.T.);
#326=ORIENTED_EDGE('',*,*,#181,.F.);
#327=ORIENTED_EDGE('',*,*,#229,.F.);
#328=ORIENTED_EDGE('',*,*,#199,.T.);
#329=ORIENTED_EDGE('',*,*,#229,.T.);
#330=ORIENTED_EDGE('',*,*,#180,.F.);
#331=ORIENTED_EDGE('',*,*,#205,.F.);
#332=PLANE('',#372);
#333=PLANE('',#387);
#334=PLANE('',#400);
#335=PLANE('',#423);
#336=PLANE('',#424);
#337=ADVANCED_FACE('',(#67,#65),#332,.T.);
#338=ADVANCED_FACE('',(#68),#333,.F.);
#339=ADVANCED_FACE('',(#69),#49,.T.);
#340=ADVANCED_FACE('',(#70),#50,.T.);
#341=ADVANCED_FACE('',(#71),#51,.T.);
#342=ADVANCED_FACE('',(#72),#52,.T.);
#343=ADVANCED_FACE('',(#73),#53,.T.);
#344=ADVANCED_FACE('',(#74,#66),#334,.F.);
#345=ADVANCED_FACE('',(#75),#54,.T.);
#346=ADVANCED_FACE('',(#76),#55,.F.);
#347=ADVANCED_FACE('',(#77),#56,.F.);
#348=ADVANCED_FACE('',(#78),#57,.F.);
#349=ADVANCED_FACE('',(#79),#58,.F.);
#350=ADVANCED_FACE('',(#80),#59,.F.);
#351=ADVANCED_FACE('',(#81),#60,.F.);
#352=ADVANCED_FACE('',(#82),#61,.F.);
#353=ADVANCED_FACE('',(#83),#62,.F.);
#354=ADVANCED_FACE('',(#84),#335,.F.);
#355=ADVANCED_FACE('',(#85),#336,.T.);
#356=ADVANCED_FACE('',(#86),#63,.T.);
#357=ADVANCED_FACE('',(#87),#64,.T.);
#358=CLOSED_SHELL('',(#337,#338,#339,#340,#341,#342,#343,#344,#345,#346,
#347,#348,#349,#350,#351,#352,#353,#354,#355,#356,#357));
#359=DERIVED_UNIT_ELEMENT(#361,1.);
#360=DERIVED_UNIT_ELEMENT(#668,-3.);
#361=(
MASS_UNIT()
NAMED_UNIT(*)
SI_UNIT(.KILO.,.GRAM.)
);
#362=DERIVED_UNIT((#359,#360));
#363=MEASURE_REPRESENTATION_ITEM('density measure',
POSITIVE_RATIO_MEASURE(7850.),#362);
#364=PROPERTY_DEFINITION_REPRESENTATION(#369,#366);
#365=PROPERTY_DEFINITION_REPRESENTATION(#370,#367);
#366=REPRESENTATION('material name',(#368),#665);
#367=REPRESENTATION('density',(#363),#665);
#368=DESCRIPTIVE_REPRESENTATION_ITEM('Steel','Steel');
#369=PROPERTY_DEFINITION('material property','material name',#675);
#370=PROPERTY_DEFINITION('material property','density of part',#675);
#371=AXIS2_PLACEMENT_3D('',#556,#427,#428);
#372=AXIS2_PLACEMENT_3D('',#557,#429,#430);
#373=AXIS2_PLACEMENT_3D('',#560,#431,#432);
#374=AXIS2_PLACEMENT_3D('',#562,#433,#434);
#375=AXIS2_PLACEMENT_3D('',#564,#435,#436);
#376=AXIS2_PLACEMENT_3D('',#566,#437,#438);
#377=AXIS2_PLACEMENT_3D('',#568,#439,#440);
#378=AXIS2_PLACEMENT_3D('',#570,#441,#442);
#379=AXIS2_PLACEMENT_3D('',#571,#443,#444);
#380=AXIS2_PLACEMENT_3D('',#574,#445,#446);
#381=AXIS2_PLACEMENT_3D('',#576,#447,#448);
#382=AXIS2_PLACEMENT_3D('',#578,#449,#450);
#383=AXIS2_PLACEMENT_3D('',#580,#451,#452);
#384=AXIS2_PLACEMENT_3D('',#582,#453,#454);
#385=AXIS2_PLACEMENT_3D('',#584,#455,#456);
#386=AXIS2_PLACEMENT_3D('',#585,#457,#458);
#387=AXIS2_PLACEMENT_3D('',#586,#459,#460);
#388=AXIS2_PLACEMENT_3D('',#589,#461,#462);
#389=AXIS2_PLACEMENT_3D('',#591,#463,#464);
#390=AXIS2_PLACEMENT_3D('',#593,#465,#466);
#391=AXIS2_PLACEMENT_3D('',#595,#467,#468);
#392=AXIS2_PLACEMENT_3D('',#597,#469,#470);
#393=AXIS2_PLACEMENT_3D('',#599,#471,#472);
#394=AXIS2_PLACEMENT_3D('',#600,#473,#474);
#395=AXIS2_PLACEMENT_3D('',#601,#475,#476);
#396=AXIS2_PLACEMENT_3D('',#604,#479,#480);
#397=AXIS2_PLACEMENT_3D('',#606,#482,#483);
#398=AXIS2_PLACEMENT_3D('',#608,#485,#486);
#399=AXIS2_PLACEMENT_3D('',#610,#488,#489);
#400=AXIS2_PLACEMENT_3D('',#612,#491,#492);
#401=AXIS2_PLACEMENT_3D('',#615,#493,#494);
#402=AXIS2_PLACEMENT_3D('',#617,#495,#496);
#403=AXIS2_PLACEMENT_3D('',#619,#497,#498);
#404=AXIS2_PLACEMENT_3D('',#621,#499,#500);
#405=AXIS2_PLACEMENT_3D('',#623,#501,#502);
#406=AXIS2_PLACEMENT_3D('',#625,#503,#504);
#407=AXIS2_PLACEMENT_3D('',#626,#505,#506);
#408=AXIS2_PLACEMENT_3D('',#629,#507,#508);
#409=AXIS2_PLACEMENT_3D('',#631,#509,#510);
#410=AXIS2_PLACEMENT_3D('',#632,#511,#512);
#411=AXIS2_PLACEMENT_3D('',#633,#513,#514);
#412=AXIS2_PLACEMENT_3D('',#637,#516,#517);
#413=AXIS2_PLACEMENT_3D('',#639,#519,#520);
#414=AXIS2_PLACEMENT_3D('',#642,#523,#524);
#415=AXIS2_PLACEMENT_3D('',#644,#526,#527);
#416=AXIS2_PLACEMENT_3D('',#646,#529,#530);
#417=AXIS2_PLACEMENT_3D('',#648,#532,#533);
#418=AXIS2_PLACEMENT_3D('',#650,#535,#536);
#419=AXIS2_PLACEMENT_3D('',#652,#538,#539);
#420=AXIS2_PLACEMENT_3D('',#653,#540,#541);
#421=AXIS2_PLACEMENT_3D('',#656,#543,#544);
#422=AXIS2_PLACEMENT_3D('',#657,#545,#546);
#423=AXIS2_PLACEMENT_3D('',#658,#547,#548);
#424=AXIS2_PLACEMENT_3D('',#659,#549,#550);
#425=AXIS2_PLACEMENT_3D('',#660,#551,#552);
#426=AXIS2_PLACEMENT_3D('',#662,#554,#555);
#427=DIRECTION('axis',(0.,0.,1.));
#428=DIRECTION('refdir',(1.,0.,0.));
#429=DIRECTION('center_axis',(-1.22464679914735E-16,0.,-1.));
#430=DIRECTION('ref_axis',(-1.,0.,1.22464679914735E-16));
#431=DIRECTION('center_axis',(-1.22464679914735E-16,0.,-1.));
#432=DIRECTION('ref_axis',(-1.,0.,1.22464679914735E-16));
#433=DIRECTION('center_axis',(-1.22464679914735E-16,0.,-1.));
#434=DIRECTION('ref_axis',(-1.,0.,1.22464679914735E-16));
#435=DIRECTION('center_axis',(-1.22464679914735E-16,0.,-1.));
#436=DIRECTION('ref_axis',(-1.,0.,1.22464679914735E-16));
#437=DIRECTION('center_axis',(-1.22464679914735E-16,0.,-1.));
#438=DIRECTION('ref_axis',(-1.,0.,1.22464679914735E-16));
#439=DIRECTION('center_axis',(-1.22464679914735E-16,0.,-1.));
#440=DIRECTION('ref_axis',(-1.,0.,1.22464679914735E-16));
#441=DIRECTION('center_axis',(-1.22464679914735E-16,0.,-1.));
#442=DIRECTION('ref_axis',(-1.,0.,1.22464679914735E-16));
#443=DIRECTION('center_axis',(-1.22464679914735E-16,0.,-1.));
#444=DIRECTION('ref_axis',(-1.,0.,1.22464679914735E-16));
#445=DIRECTION('center_axis',(1.22464679914735E-16,0.,1.));
#446=DIRECTION('ref_axis',(1.,0.,0.));
#447=DIRECTION('center_axis',(1.22464679914735E-16,0.,1.));
#448=DIRECTION('ref_axis',(1.,0.,0.));
#449=DIRECTION('center_axis',(1.22464679914735E-16,0.,1.));
#450=DIRECTION('ref_axis',(1.,0.,0.));
#451=DIRECTION('center_axis',(1.22464679914735E-16,0.,1.));
#452=DIRECTION('ref_axis',(1.,0.,0.));
#453=DIRECTION('center_axis',(1.22464679914735E-16,0.,1.));
#454=DIRECTION('ref_axis',(1.,0.,0.));
#455=DIRECTION('center_axis',(1.22464679914735E-16,0.,1.));
#456=DIRECTION('ref_axis',(1.,0.,0.));
#457=DIRECTION('center_axis',(1.22464679914735E-16,0.,1.));
#458=DIRECTION('ref_axis',(1.,0.,0.));
#459=DIRECTION('center_axis',(-1.22464679914735E-16,0.,-1.));
#460=DIRECTION('ref_axis',(-1.,0.,1.22464679914735E-16));
#461=DIRECTION('center_axis',(-1.22464679914735E-16,0.,-1.));
#462=DIRECTION('ref_axis',(-1.,0.,1.22464679914735E-16));
#463=DIRECTION('center_axis',(-1.22464679914735E-16,0.,-1.));
#464=DIRECTION('ref_axis',(-1.,0.,1.22464679914735E-16));
#465=DIRECTION('center_axis',(-1.22464679914735E-16,0.,-1.));
#466=DIRECTION('ref_axis',(-1.,0.,1.22464679914735E-16));
#467=DIRECTION('center_axis',(-1.22464679914735E-16,0.,-1.));
#468=DIRECTION('ref_axis',(-1.,0.,1.22464679914735E-16));
#469=DIRECTION('center_axis',(-1.22464679914735E-16,0.,-1.));
#470=DIRECTION('ref_axis',(-1.,0.,1.22464679914735E-16));
#471=DIRECTION('center_axis',(-1.22464679914735E-16,0.,-1.));
#472=DIRECTION('ref_axis',(-1.,0.,1.22464679914735E-16));
#473=DIRECTION('center_axis',(-1.22464679914735E-16,0.,-1.));
#474=DIRECTION('ref_axis',(-1.,0.,1.22464679914735E-16));
#475=DIRECTION('center_axis',(-1.22464679914735E-16,0.,-1.));
#476=DIRECTION('ref_axis',(0.974927912181824,-0.222520933956314,-1.19394234705288E-16));
#477=DIRECTION('',(-1.22464679914735E-16,0.,-1.));
#478=DIRECTION('',(-1.22464679914735E-16,0.,-1.));
#479=DIRECTION('center_axis',(-1.22464679914735E-16,0.,-1.));
#480=DIRECTION('ref_axis',(-1.,0.,1.22464679914735E-16));
#481=DIRECTION('',(-1.22464679914735E-16,0.,-1.));
#482=DIRECTION('center_axis',(-1.22464679914735E-16,0.,-1.));
#483=DIRECTION('ref_axis',(-1.,0.,1.22464679914735E-16));
#484=DIRECTION('',(-1.22464679914735E-16,0.,-1.));
#485=DIRECTION('center_axis',(-1.22464679914735E-16,0.,-1.));
#486=DIRECTION('ref_axis',(-1.,0.,1.22464679914735E-16));
#487=DIRECTION('',(-1.22464679914735E-16,0.,-1.));
#488=DIRECTION('center_axis',(-1.22464679914735E-16,0.,-1.));
#489=DIRECTION('ref_axis',(-1.,0.,1.22464679914735E-16));
#490=DIRECTION('',(-1.22464679914735E-16,0.,-1.));
#491=DIRECTION('center_axis',(0.,0.,1.));
#492=DIRECTION('ref_axis',(1.,0.,0.));
#493=DIRECTION('center_axis',(0.,0.,1.));
#494=DIRECTION('ref_axis',(1.,0.,0.));
#495=DIRECTION('center_axis',(0.,0.,1.));
#496=DIRECTION('ref_axis',(1.,0.,0.));
#497=DIRECTION('center_axis',(0.,0.,1.));
#498=DIRECTION('ref_axis',(1.,0.,0.));
#499=DIRECTION('center_axis',(0.,0.,1.));
#500=DIRECTION('ref_axis',(1.,0.,0.));
#501=DIRECTION('center_axis',(0.,0.,1.));
#502=DIRECTION('ref_axis',(1.,0.,0.));
#503=DIRECTION('center_axis',(0.,0.,1.));
#504=DIRECTION('ref_axis',(1.,0.,0.));
#505=DIRECTION('center_axis',(0.,0.,1.));
#506=DIRECTION('ref_axis',(1.,0.,0.));
#507=DIRECTION('center_axis',(0.,0.,-1.));
#508=DIRECTION('ref_axis',(-1.,0.,1.22464679914735E-16));
#509=DIRECTION('center_axis',(0.,0.,-1.));
#510=DIRECTION('ref_axis',(1.,0.,0.));
#511=DIRECTION('center_axis',(0.,0.,-1.));
#512=DIRECTION('ref_axis',(-1.,0.,1.22464679914735E-16));
#513=DIRECTION('center_axis',(0.,0.,1.));
#514=DIRECTION('ref_axis',(-0.457916842921853,-0.88899503090202,0.));
#515=DIRECTION('',(0.,0.,1.));
#516=DIRECTION('center_axis',(-1.22464679914735E-16,0.,-1.));
#517=DIRECTION('ref_axis',(1.,0.,0.));
#518=DIRECTION('',(0.,0.,-1.));
#519=DIRECTION('center_axis',(0.,0.,1.));
#520=DIRECTION('ref_axis',(1.,0.,0.));
#521=DIRECTION('',(0.,0.,1.));
#522=DIRECTION('',(0.,0.,-1.));
#523=DIRECTION('center_axis',(0.,0.,1.));
#524=DIRECTION('ref_axis',(-0.433883739117558,-0.900968867902419,0.));
#525=DIRECTION('',(0.,0.,1.));
#526=DIRECTION('center_axis',(0.,0.,1.));
#527=DIRECTION('ref_axis',(-0.974927912181824,-0.222520933956314,0.));
#528=DIRECTION('',(0.,0.,1.));
#529=DIRECTION('center_axis',(0.,0.,1.));
#530=DIRECTION('ref_axis',(-0.78183148246803,0.623489801858734,0.));
#531=DIRECTION('',(0.,0.,1.));
#532=DIRECTION('center_axis',(0.,0.,1.));
#533=DIRECTION('ref_axis',(1.,0.,0.));
#534=DIRECTION('',(0.,0.,1.));
#535=DIRECTION('center_axis',(0.,0.,1.));
#536=DIRECTION('ref_axis',(1.,0.,0.));
#537=DIRECTION('',(0.,0.,1.));
#538=DIRECTION('center_axis',(0.,0.,1.));
#539=DIRECTION('ref_axis',(1.,0.,0.));
#540=DIRECTION('center_axis',(1.22464679914735E-16,0.,1.));
#541=DIRECTION('ref_axis',(-1.,0.,1.22464679914735E-16));
#542=DIRECTION('',(1.22464679914735E-16,0.,1.));
#543=DIRECTION('center_axis',(1.22464679914735E-16,0.,1.));
#544=DIRECTION('ref_axis',(-1.,0.,1.22464679914735E-16));
#545=DIRECTION('center_axis',(1.22464679914735E-16,0.,1.));
#546=DIRECTION('ref_axis',(-1.,0.,1.22464679914735E-16));
#547=DIRECTION('center_axis',(1.22464679914735E-16,0.,1.));
#548=DIRECTION('ref_axis',(-1.,0.,1.22464679914735E-16));
#549=DIRECTION('center_axis',(-1.22464679914735E-16,0.,-1.));
#550=DIRECTION('ref_axis',(-1.,0.,1.22464679914735E-16));
#551=DIRECTION('center_axis',(-1.22464679914735E-16,0.,-1.));
#552=DIRECTION('ref_axis',(0.78183148246803,0.623489801858734,-9.57467422477103E-17));
#553=DIRECTION('',(-1.22464679914735E-16,0.,-1.));
#554=DIRECTION('center_axis',(-1.22464679914735E-16,0.,-1.));
#555=DIRECTION('ref_axis',(-1.,0.,1.22464679914735E-16));
#556=CARTESIAN_POINT('',(0.,0.,0.));
#557=CARTESIAN_POINT('Origin',(0.12656509876251,0.247577834670988,-4.));
#558=CARTESIAN_POINT('',(-6.94303688984594,1.6135905204355,-4.));
#559=CARTESIAN_POINT('',(-3.01970377564663,6.53329463708014,-4.));
#560=CARTESIAN_POINT('Origin',(-3.78259238347883,3.117449065038,-4.));
#561=CARTESIAN_POINT('',(3.27283397317165,6.53329463708014,-4.));
#562=CARTESIAN_POINT('Origin',(0.12656509876251,5.00000008940697,-4.));
#563=CARTESIAN_POINT('',(7.19616708737096,1.61359052043551,-4.));
#564=CARTESIAN_POINT('Origin',(4.03572258100385,3.117449065038,-4.));
#565=CARTESIAN_POINT('',(5.79594571054855,-4.52118016934521,-4.));
#566=CARTESIAN_POINT('Origin',(5.00120474683698,-1.1126046896765,-4.));
#567=CARTESIAN_POINT('',(0.126565098762511,-7.25140997634087,-4.));
#568=CARTESIAN_POINT('Origin',(2.29598383314253,-4.504844420065,-4.));
#569=CARTESIAN_POINT('',(-5.54281551302353,-4.52118016934521,-4.));
#570=CARTESIAN_POINT('Origin',(-2.04285363561751,-4.504844420065,-4.));
#571=CARTESIAN_POINT('Origin',(-4.74807454931196,-1.1126046896765,-4.));
#572=CARTESIAN_POINT('',(0.,-5.74727041581725,-4.));
#573=CARTESIAN_POINT('',(4.49339694934305,-3.58336449278646,-4.));
#574=CARTESIAN_POINT('Origin',(2.16941873438002,-4.504844420065,-4.));
#575=CARTESIAN_POINT('',(5.60317434723707,1.27888798062715,-4.));
#576=CARTESIAN_POINT('Origin',(4.87463964807447,-1.1126046896765,-4.));
#577=CARTESIAN_POINT('',(2.49364717773451,5.17811172006793,-4.));
#578=CARTESIAN_POINT('Origin',(3.90915748224134,3.117449065038,-4.));
#579=CARTESIAN_POINT('',(-2.49364717773451,5.17811172006793,-4.));
#580=CARTESIAN_POINT('Origin',(-9.10729824887824E-17,5.00000008940697,-4.));
#581=CARTESIAN_POINT('',(-5.60317434723707,1.27888798062715,-4.));
#582=CARTESIAN_POINT('Origin',(-3.90915748224134,3.117449065038,-4.));
#583=CARTESIAN_POINT('',(-4.49339694934305,-3.58336449278646,-4.));
#584=CARTESIAN_POINT('Origin',(-4.87463964807447,-1.1126046896765,-4.));
#585=CARTESIAN_POINT('Origin',(-2.16941873438002,-4.504844420065,-4.));
#586=CARTESIAN_POINT('Origin',(0.126565098762512,0.247577834670988,12.5));
#587=CARTESIAN_POINT('',(-6.94303688984594,1.6135905204355,12.5));
#588=CARTESIAN_POINT('',(-3.01970377564663,6.53329463708014,12.5));
#589=CARTESIAN_POINT('Origin',(-3.78259238347883,3.117449065038,12.5));
#590=CARTESIAN_POINT('',(-5.54281551302353,-4.52118016934521,12.5));
#591=CARTESIAN_POINT('Origin',(-4.74807454931196,-1.1126046896765,12.5));
#592=CARTESIAN_POINT('',(0.126565098762512,-7.25140997634087,12.5));
#593=CARTESIAN_POINT('Origin',(-2.04285363561751,-4.504844420065,12.5));
#594=CARTESIAN_POINT('',(5.79594571054855,-4.52118016934521,12.5));
#595=CARTESIAN_POINT('Origin',(2.29598383314254,-4.504844420065,12.5));
#596=CARTESIAN_POINT('',(7.19616708737096,1.61359052043551,12.5));
#597=CARTESIAN_POINT('Origin',(5.00120474683698,-1.1126046896765,12.5));
#598=CARTESIAN_POINT('',(3.27283397317165,6.53329463708014,12.5));
#599=CARTESIAN_POINT('Origin',(4.03572258100385,3.117449065038,12.5));
#600=CARTESIAN_POINT('Origin',(0.126565098762512,5.00000008940697,12.5));
#601=CARTESIAN_POINT('Origin',(5.00120474683698,-1.1126046896765,15.));
#602=CARTESIAN_POINT('',(5.79594571054855,-4.52118016934521,15.));
#603=CARTESIAN_POINT('',(7.19616708737096,1.61359052043551,15.));
#604=CARTESIAN_POINT('Origin',(2.29598383314254,-4.504844420065,15.));
#605=CARTESIAN_POINT('',(0.126565098762513,-7.25140997634087,15.));
#606=CARTESIAN_POINT('Origin',(-2.04285363561751,-4.504844420065,15.));
#607=CARTESIAN_POINT('',(-5.54281551302353,-4.52118016934521,15.));
#608=CARTESIAN_POINT('Origin',(-4.74807454931196,-1.1126046896765,15.));
#609=CARTESIAN_POINT('',(-6.94303688984594,1.6135905204355,15.));
#610=CARTESIAN_POINT('Origin',(-3.78259238347882,3.117449065038,15.));
#611=CARTESIAN_POINT('',(-3.01970377564663,6.53329463708014,15.));
#612=CARTESIAN_POINT('Origin',(0.,0.247577834670989,2.75));
#613=CARTESIAN_POINT('',(4.49339694934305,-3.58336449278646,2.75));
#614=CARTESIAN_POINT('',(5.60317434723707,1.27888798062715,2.75));
#615=CARTESIAN_POINT('Origin',(4.87463964807447,-1.1126046896765,2.75));
#616=CARTESIAN_POINT('',(-5.55111512312578E-16,-5.74727041581725,2.75));
#617=CARTESIAN_POINT('Origin',(2.16941873438002,-4.504844420065,2.75));
#618=CARTESIAN_POINT('',(-4.49339694934305,-3.58336449278646,2.75));
#619=CARTESIAN_POINT('Origin',(-2.16941873438002,-4.504844420065,2.75));
#620=CARTESIAN_POINT('',(-5.60317434723707,1.27888798062715,2.75));
#621=CARTESIAN_POINT('Origin',(-4.87463964807447,-1.1126046896765,2.75));
#622=CARTESIAN_POINT('',(-2.49364717773451,5.17811172006793,2.75));
#623=CARTESIAN_POINT('Origin',(-3.90915748224134,3.117449065038,2.75));
#624=CARTESIAN_POINT('',(2.49364717773451,5.17811172006793,2.75));
#625=CARTESIAN_POINT('Origin',(-9.10729824887824E-17,5.00000008940697,2.75));
#626=CARTESIAN_POINT('Origin',(3.90915748224134,3.117449065038,2.75));
#627=CARTESIAN_POINT('',(-2.97590197273345,0.379483133592502,2.74999999999999));
#628=CARTESIAN_POINT('',(3.11328254938125,0.122856087982655,2.75));
#629=CARTESIAN_POINT('Origin',(0.0632825493812542,0.122856087982655,2.75));
#630=CARTESIAN_POINT('',(2.03684547735076,-2.20255771806229,2.74999999999999));
#631=CARTESIAN_POINT('Origin',(0.,0.,2.75));
#632=CARTESIAN_POINT('Origin',(0.0632825493812542,0.122856087982655,2.75));
#633=CARTESIAN_POINT('Origin',(0.,0.,0.));
#634=CARTESIAN_POINT('',(-2.97590197273345,0.379483133592494,0.));
#635=CARTESIAN_POINT('',(-2.97590197273345,0.379483133592494,0.));
#636=CARTESIAN_POINT('',(2.03684547735076,-2.20255771806229,0.));
#637=CARTESIAN_POINT('Origin',(0.,0.,0.));
#638=CARTESIAN_POINT('',(2.03684547735076,-2.20255771806229,0.));
#639=CARTESIAN_POINT('Origin',(2.16941873438002,-4.504844420065,0.));
#640=CARTESIAN_POINT('',(-5.55111512312578E-16,-5.74727041581725,0.));
#641=CARTESIAN_POINT('',(4.49339694934305,-3.58336449278646,0.));
#642=CARTESIAN_POINT('Origin',(-2.16941873438002,-4.504844420065,0.));
#643=CARTESIAN_POINT('',(-4.49339694934305,-3.58336449278646,0.));
#644=CARTESIAN_POINT('Origin',(-4.87463964807447,-1.1126046896765,0.));
#645=CARTESIAN_POINT('',(-5.60317434723707,1.27888798062715,0.));
#646=CARTESIAN_POINT('Origin',(-3.90915748224134,3.117449065038,0.));
#647=CARTESIAN_POINT('',(-2.49364717773451,5.17811172006793,0.));
#648=CARTESIAN_POINT('Origin',(-9.10729824887824E-17,5.00000008940697,0.));
#649=CARTESIAN_POINT('',(2.49364717773451,5.17811172006793,0.));
#650=CARTESIAN_POINT('Origin',(3.90915748224134,3.117449065038,0.));
#651=CARTESIAN_POINT('',(5.60317434723707,1.27888798062715,0.));
#652=CARTESIAN_POINT('Origin',(4.87463964807447,-1.1126046896765,0.));
#653=CARTESIAN_POINT('Origin',(0.0632825493812546,0.122856087982655,5.5));
#654=CARTESIAN_POINT('',(3.11328254938126,0.122856087982655,11.));
#655=CARTESIAN_POINT('',(3.11328254938125,0.122856087982655,5.5));
#656=CARTESIAN_POINT('Origin',(0.0632825493812552,0.122856087982655,11.));
#657=CARTESIAN_POINT('Origin',(0.0632825493812539,0.122856087982655,0.));
#658=CARTESIAN_POINT('Origin',(0.0632825493812552,0.122856087982655,11.));
#659=CARTESIAN_POINT('Origin',(0.12656509876251,0.247577834670988,0.));
#660=CARTESIAN_POINT('Origin',(4.03572258100385,3.117449065038,15.));
#661=CARTESIAN_POINT('',(3.27283397317165,6.53329463708014,15.));
#662=CARTESIAN_POINT('Origin',(0.126565098762512,5.00000008940697,15.));
#663=UNCERTAINTY_MEASURE_WITH_UNIT(LENGTH_MEASURE(0.01),#667,
'DISTANCE_ACCURACY_VALUE',
'Maximum model space distance between geometric entities at asserted c
onnectivities');
#664=UNCERTAINTY_MEASURE_WITH_UNIT(LENGTH_MEASURE(0.01),#667,
'DISTANCE_ACCURACY_VALUE',
'Maximum model space distance between geometric entities at asserted c
onnectivities');
#665=(
GEOMETRIC_REPRESENTATION_CONTEXT(3)
GLOBAL_UNCERTAINTY_ASSIGNED_CONTEXT((#663))
GLOBAL_UNIT_ASSIGNED_CONTEXT((#667,#669,#670))
REPRESENTATION_CONTEXT('','3D')
);
#666=(
GEOMETRIC_REPRESENTATION_CONTEXT(3)
GLOBAL_UNCERTAINTY_ASSIGNED_CONTEXT((#664))
GLOBAL_UNIT_ASSIGNED_CONTEXT((#667,#669,#670))
REPRESENTATION_CONTEXT('','3D')
);
#667=(
LENGTH_UNIT()
NAMED_UNIT(*)
SI_UNIT(.MILLI.,.METRE.)
);
#668=(
LENGTH_UNIT()
NAMED_UNIT(*)
SI_UNIT($,.METRE.)
);
#669=(
NAMED_UNIT(*)
PLANE_ANGLE_UNIT()
SI_UNIT($,.RADIAN.)
);
#670=(
NAMED_UNIT(*)
SI_UNIT($,.STERADIAN.)
SOLID_ANGLE_UNIT()
);
#671=SHAPE_DEFINITION_REPRESENTATION(#672,#673);
#672=PRODUCT_DEFINITION_SHAPE('',$,#675);
#673=SHAPE_REPRESENTATION('',(#371),#665);
#674=PRODUCT_DEFINITION_CONTEXT('part definition',#679,'design');
#675=PRODUCT_DEFINITION('2026-04-14-21-10-56-708','knob',#676,#674);
#676=PRODUCT_DEFINITION_FORMATION('',$,#681);
#677=PRODUCT_RELATED_PRODUCT_CATEGORY('knob','knob',(#681));
#678=APPLICATION_PROTOCOL_DEFINITION('international standard',
'automotive_design',2009,#679);
#679=APPLICATION_CONTEXT(
'Core Data for Automotive Mechanical Design Process');
#680=PRODUCT_CONTEXT('part definition',#679,'mechanical');
#681=PRODUCT('2026-04-14-21-10-56-708','knob',$,(#680));
#682=PRESENTATION_STYLE_ASSIGNMENT((#683));
#683=SURFACE_STYLE_USAGE(.BOTH.,#684);
#684=SURFACE_SIDE_STYLE('',(#685));
#685=SURFACE_STYLE_FILL_AREA(#686);
#686=FILL_AREA_STYLE('Steel - Satin',(#687));
#687=FILL_AREA_STYLE_COLOUR('Steel - Satin',#688);
#688=COLOUR_RGB('Steel - Satin',0.627450980392157,0.627450980392157,0.627450980392157);
ENDSEC;
END-ISO-10303-21;
